<svg width="108" height="95" viewBox="0 0 108 95" fill="none" xmlns="http://www.w3.org/2000/svg">
<path d="M75.7267 41.334H32.5471V25.5066H75.7486L75.7267 41.334ZM70.0103 31.1399H38.2373V35.7007H70.0059L70.0103 31.1399Z" fill="white"/>
<path d="M66.5085 42.7346H58.8093C58.8881 54.6023 58.9654 66.4655 59.0412 78.3244C60.6479 78.111 62.2387 77.7923 63.8035 77.3702C63.7218 69.9467 63.6371 62.5247 63.5496 55.1042C66.1758 54.8503 68.8021 54.4826 71.3408 54.0143C71.4108 60.7812 71.4837 67.5467 71.5596 74.3107C73.0366 73.5237 74.4594 72.639 75.8185 71.6625V42.7346H66.5085ZM71.3232 50.6396C68.7466 50.9693 66.1467 51.2246 63.5233 51.4056C63.5233 50.3521 63.5117 49.2987 63.4883 48.2453C66.1146 48.1315 68.716 47.9696 71.2926 47.7595C71.2926 48.7166 71.3028 49.6766 71.3232 50.6396Z" fill="white"/>
<path d="M44.365 46.6567C42.7499 45.3917 41.1392 44.1662 39.524 43.0106L32.4463 42.98V71.9167C33.9735 73.0243 35.5831 74.0134 37.2611 74.8755L37.5631 48.3856C38.9375 49.4668 40.3075 50.596 41.6907 51.7472C41.5827 60.0607 41.4747 68.3771 41.3668 76.6964C43.0777 77.3305 44.8333 77.8368 46.6192 78.2109L46.8687 52.163C48.2869 51.1826 49.7007 50.1496 51.1101 49.0991C51.0663 59.0204 51.024 68.9417 50.9831 78.863C52.7911 79.0206 54.6082 79.0425 56.4194 78.9287C56.3844 66.9647 56.3465 55.011 56.3056 43.0675H49.2061C47.5909 44.315 45.967 45.5318 44.3432 46.6917" fill="white"/>
<path d="M90.2058 16.188H18.2209C13.7869 16.188 9.70753 19.7903 9.37488 24.2111C9.2926 25.3733 9.44477 26.5401 9.82236 27.6423C10.1999 28.7445 10.7952 29.7595 11.5729 30.6271C12.3505 31.4947 13.2946 32.1971 14.349 32.6926C15.4035 33.188 16.5468 33.4665 17.711 33.5114C18.8752 33.5563 20.0365 33.3667 21.126 32.9539C22.2155 32.5411 23.2109 31.9135 24.053 31.1084C24.8951 30.3033 25.5669 29.3371 26.0282 28.2673C26.4896 27.1975 26.7312 26.0458 26.7386 24.8808C26.7358 24.1705 26.6447 23.4633 26.4673 22.7754H81.78C81.3368 24.5314 81.4531 26.3819 82.1127 28.0686C82.7723 29.7552 83.9421 31.1937 85.4589 32.1832C86.9757 33.1727 88.7637 33.6638 90.5731 33.5879C92.3825 33.5119 94.123 32.8727 95.5516 31.7596C96.9801 30.6464 98.0253 29.1149 98.5412 27.379C99.0571 25.643 99.0179 23.7892 98.4291 22.0766C97.8403 20.364 96.7314 18.878 95.2571 17.8262C93.7828 16.7744 92.0168 16.2093 90.2058 16.2099M22.3922 24.8896C22.4072 25.9633 22.0297 27.0055 21.3307 27.8206C20.6316 28.6357 19.659 29.1676 18.5955 29.3163C17.5321 29.4651 16.4509 29.2205 15.555 28.6285C14.6591 28.0365 14.0101 27.1378 13.7299 26.1011C13.4498 25.0645 13.5577 23.9613 14.0334 22.9986C14.5091 22.0358 15.3198 21.2799 16.3135 20.8727C17.3071 20.4655 18.4152 20.435 19.4297 20.7869C20.4442 21.1389 21.2953 21.8491 21.8232 22.7842C22.1905 23.4255 22.3865 24.1506 22.3922 24.8896ZM89.7988 29.2185C88.8488 29.1254 87.9553 28.7243 87.2544 28.0763C86.5535 27.4284 86.0836 26.569 85.9163 25.6293C85.7452 24.6512 85.9234 23.6442 86.4197 22.7842C86.8008 22.1021 87.359 21.5357 88.0355 21.1446C88.7119 20.7536 89.4814 20.5526 90.2626 20.5627C91.0439 20.5728 91.8079 20.7938 92.4739 21.2023C93.14 21.6107 93.6833 22.1915 94.0466 22.8832C94.4099 23.5749 94.5796 24.3519 94.5378 25.1321C94.496 25.9123 94.2442 26.6667 93.8091 27.3157C93.374 27.9646 92.7716 28.484 92.0657 28.8189C91.3599 29.1538 90.5766 29.2919 89.7988 29.2185Z" fill="white"/>
<path d="M52.6421 94.5895C33.3218 94.2175 14.9469 86.1199 1.28178 72.4548L0.844078 72.0171V0.557373H107.395V72.0302L106.519 72.9056C99.478 79.9858 91.0705 85.56 81.8077 89.2892C72.5449 93.0184 62.6204 94.8247 52.6377 94.5983M6.77935 69.5878C19.4896 81.8524 36.4632 88.7063 54.1259 88.7063C71.7886 88.7063 88.7621 81.8524 101.472 69.5878V6.47953H6.77935V69.5878Z" fill="white"/>
</svg>
