<svg width="110" height="54" viewBox="0 0 110 54" fill="none" xmlns="http://www.w3.org/2000/svg">
<path d="M69.1243 12.3429C69.1129 11.9549 69.1795 11.5685 69.3201 11.2067C69.4607 10.8448 69.6725 10.5149 69.9429 10.2364C70.2133 9.95788 70.5369 9.73648 70.8944 9.58529C71.252 9.4341 71.6362 9.3562 72.0244 9.3562C72.4126 9.3562 72.7969 9.4341 73.1544 9.58529C73.512 9.73648 73.8355 9.95788 74.106 10.2364C74.3764 10.5149 74.5882 10.8448 74.7288 11.2067C74.8694 11.5685 74.936 11.9549 74.9246 12.3429V18.7199C74.936 19.1079 74.8694 19.4943 74.7288 19.8562C74.5882 20.218 74.3764 20.5479 74.106 20.8264C73.8355 21.1049 73.512 21.3263 73.1544 21.4775C72.7969 21.6287 72.4126 21.7066 72.0244 21.7066C71.6362 21.7066 71.252 21.6287 70.8944 21.4775C70.5369 21.3263 70.2133 21.1049 69.9429 20.8264C69.6725 20.5479 69.4607 20.218 69.3201 19.8562C69.1795 19.4943 69.1129 19.1079 69.1243 18.7199V12.3429ZM70.8546 18.7199C70.8546 19.55 71.3963 19.9412 72.0232 19.9412C72.6501 19.9412 73.1943 19.55 73.1943 18.7199V12.3429C73.1943 11.5103 72.6526 11.1216 72.0232 11.1216C71.3938 11.1216 70.8546 11.5103 70.8546 12.3429V18.7199Z" fill="white"/>
<path d="M76.3413 12.9673H78.0716V13.8826C78.7838 13.2557 79.3606 12.8645 80.3611 12.8645V14.6976C80.1948 14.6296 80.0167 14.5947 79.837 14.5948C79.1073 14.5948 78.0816 15.0537 78.0816 16.4605V21.5687H76.3413V12.9673Z" fill="white"/>
<path d="M81.0633 12.9672H82.7936V22.4964C82.7936 24.1916 81.6075 25.0567 79.98 25.0567V23.4292C80.81 23.4292 81.0633 23.1057 81.0633 21.8519V12.9672ZM81.0633 9.48901H82.7936V11.2118H81.0633V9.48901Z" fill="white"/>
<path d="M89.3814 21.5686H87.6536V20.7411H87.626C87.4643 21.0291 87.2276 21.2679 86.9411 21.4322C86.6545 21.5965 86.3288 21.68 85.9985 21.674C85.1334 21.674 84.2156 21.1147 84.2156 19.57V12.9673H85.9459V18.9205C85.9459 19.55 86.2518 19.9386 86.796 19.9386C87.4405 19.9386 87.6611 19.5148 87.6611 18.7525V12.9673H89.3814V21.5686Z" fill="white"/>
<path d="M92.3906 17.9225V19.0936C92.3792 19.2077 92.3934 19.3229 92.432 19.4309C92.4706 19.5389 92.5327 19.637 92.6137 19.718C92.6948 19.7991 92.7929 19.8612 92.9009 19.8998C93.0089 19.9384 93.1241 19.9525 93.2382 19.9412C93.9002 19.9412 94.0507 19.4397 94.0858 19.076H95.8161C95.827 19.7534 95.5785 20.4092 95.1214 20.9092C94.8764 21.1577 94.5826 21.3528 94.2585 21.4823C93.9344 21.6117 93.587 21.6727 93.2382 21.6615C92.7843 21.6836 92.3331 21.5796 91.9347 21.3609C91.5363 21.1422 91.2063 20.8175 90.9813 20.4227C90.735 19.8718 90.6249 19.2697 90.6603 18.6673V15.8336C90.6258 15.2313 90.7359 14.6294 90.9813 14.0782C91.2068 13.6838 91.5369 13.3594 91.9351 13.1408C92.3334 12.9222 92.7844 12.8179 93.2382 12.8394C94.8331 12.8394 95.8161 14.0105 95.8161 15.5202V17.8949L92.3906 17.9225ZM92.3906 16.5659H94.0858V15.5828C94.0858 14.9384 93.7623 14.5973 93.2382 14.5973C92.7141 14.5973 92.3906 14.9384 92.3906 15.5828V16.5659Z" fill="white"/>
<path d="M96.9922 9.4917H98.72V19.1438C98.72 19.7883 98.9081 19.9763 99.5701 20.044V21.6715C97.9752 21.6715 96.9922 21.2653 96.9922 19.2641V9.4917Z" fill="white"/>
<path d="M103.522 20.6885H103.487C103.028 21.3154 102.657 21.6715 101.824 21.6715C100.992 21.6715 99.9587 21.2803 99.9587 19.382C99.9587 17.4134 100.518 16.463 102.69 16.463C102.928 16.463 103.166 16.4981 103.522 16.5157V15.6154C103.522 15.0387 103.301 14.5973 102.657 14.5973C102.414 14.5991 102.18 14.689 101.998 14.8505C101.816 15.0119 101.699 15.2338 101.669 15.475H99.9913C100.014 14.7786 100.292 14.1148 100.771 13.6093C101.021 13.3681 101.316 13.1793 101.639 13.0539C101.963 12.9286 102.308 12.8693 102.655 12.8796C104.096 12.8796 105.25 13.7974 105.25 15.5954V21.5687H103.52L103.522 20.6885ZM103.522 17.8724C103.365 17.8401 103.206 17.8233 103.046 17.8222C102.293 17.8222 101.689 18.1256 101.689 19.0434C101.689 19.703 102.028 20.1443 102.589 20.1443C103.151 20.1443 103.522 19.7381 103.522 19.0434V17.8724Z" fill="white"/>
<path d="M69.2246 25.2222H70.8872L73.109 31.6193H73.1441L75.3484 25.2222H77.0285V37.3017H75.2982V29.9567H75.2631L73.5504 35.1476H72.6852L70.99 29.9567H70.9549V37.3017H69.2246V25.2222Z" fill="white"/>
<path d="M78.4027 31.5844C78.3673 30.982 78.4774 30.3799 78.7237 29.829C78.965 29.4489 79.2983 29.1359 79.6929 28.919C80.0874 28.7021 80.5304 28.5884 80.9806 28.5884C81.4308 28.5884 81.8738 28.7021 82.2683 28.919C82.6629 29.1359 82.9962 29.4489 83.2375 29.829C83.4846 30.3797 83.5956 30.9818 83.561 31.5844V34.4181C83.5948 35.0206 83.4839 35.6225 83.2375 36.1734C82.9962 36.5536 82.6629 36.8666 82.2683 37.0834C81.8738 37.3003 81.4308 37.414 80.9806 37.414C80.5304 37.414 80.0874 37.3003 79.6929 37.0834C79.2983 36.8666 78.965 36.5536 78.7237 36.1734C78.4783 35.6223 78.3682 35.0204 78.4027 34.4181V31.5844ZM80.1305 34.6889C80.1305 35.3334 80.454 35.6744 80.9806 35.6744C81.5072 35.6744 81.8282 35.3334 81.8282 34.6889V31.3135C81.8282 30.6691 81.5047 30.3305 80.9806 30.3305C80.4565 30.3305 80.1305 30.6691 80.1305 31.3135V34.6889Z" fill="white"/>
<path d="M84.8298 28.7029H86.5601V29.6182C87.2723 28.9913 87.8491 28.6001 88.8497 28.6001V30.4307C88.6831 30.3635 88.5051 30.3295 88.3255 30.3304C87.5958 30.3304 86.5702 30.7893 86.5702 32.1961V37.2917H84.8399L84.8298 28.7029Z" fill="white"/>
<path d="M92.7167 36.419H92.6841C92.2252 37.0459 91.8515 37.4045 91.0215 37.4045C90.1914 37.4045 89.1558 37.0133 89.1558 35.1125C89.1558 33.1465 89.715 32.1961 91.8866 32.1961C92.1249 32.1961 92.3606 32.2287 92.7167 32.2462V31.3485C92.7167 30.7717 92.496 30.3303 91.8515 30.3303C91.6112 30.3329 91.3798 30.4216 91.1994 30.5804C91.0189 30.7392 90.9015 30.9574 90.8685 31.1955H89.1884C89.2123 30.4993 89.4897 29.8359 89.9682 29.3298C90.2175 29.0885 90.5125 28.8995 90.836 28.7742C91.1595 28.6489 91.5048 28.5896 91.8515 28.6C93.2934 28.6 94.447 29.5153 94.447 31.3134V37.2917H92.7167V36.419ZM92.7167 33.6029C92.5605 33.5717 92.4019 33.5549 92.2427 33.5527C91.4904 33.5527 90.8861 33.8587 90.8861 34.774C90.8861 35.436 91.2246 35.8773 91.7838 35.8773C92.343 35.8773 92.7167 35.4686 92.7167 34.774V33.6029Z" fill="white"/>
<path d="M95.6179 25.2249H97.3482V34.8769C97.3482 35.5214 97.5338 35.707 98.1958 35.7747V37.4047C96.6009 37.4047 95.6179 36.9959 95.6179 34.9948V25.2249Z" fill="white"/>
<path d="M100.45 33.6556V34.8241C100.439 34.9386 100.453 35.0541 100.492 35.1624C100.531 35.2707 100.593 35.369 100.674 35.4503C100.756 35.5316 100.854 35.5939 100.962 35.6326C101.07 35.6713 101.186 35.6856 101.3 35.6742C101.962 35.6742 102.113 35.1727 102.148 34.8091H103.878C103.889 35.4857 103.641 36.1408 103.184 36.6397C102.94 36.8908 102.647 37.0885 102.323 37.2202C101.998 37.3519 101.65 37.4146 101.3 37.4045C100.847 37.4261 100.396 37.3218 99.9974 37.1032C99.5991 36.8846 99.269 36.5602 99.0435 36.1657C98.7981 35.6146 98.6881 35.0127 98.7225 34.4104V31.5767C98.6872 30.9743 98.7973 30.3722 99.0435 29.8213C99.2686 29.4265 99.5986 29.1018 99.997 28.8831C100.395 28.6644 100.847 28.5604 101.3 28.5825C102.893 28.5825 103.878 29.7536 103.878 31.2632V33.638L100.45 33.6556ZM100.45 32.2989H102.148V31.3134C102.148 30.6689 101.825 30.3304 101.3 30.3304C100.776 30.3304 100.45 30.6689 100.45 31.3134V32.2989Z" fill="white"/>
<path d="M108.287 31.1103C108.291 30.9933 108.271 30.8766 108.228 30.7676C108.185 30.6586 108.12 30.5596 108.038 30.4768C107.955 30.394 107.856 30.3291 107.747 30.2863C107.638 30.2434 107.521 30.2234 107.404 30.2276C107.291 30.2255 107.178 30.2466 107.073 30.2895C106.968 30.3325 106.873 30.3964 106.794 30.4774C106.714 30.5584 106.652 30.6548 106.612 30.7606C106.571 30.8664 106.552 30.9795 106.556 31.0928C106.556 31.4163 106.642 31.7222 107.286 31.9755L108.304 32.3817C109.593 32.8833 110 33.7911 110 34.8092C110.006 35.1503 109.944 35.4892 109.817 35.8059C109.69 36.1225 109.5 36.4104 109.26 36.6525C109.019 36.8945 108.733 37.0858 108.417 37.215C108.101 37.3443 107.763 37.4087 107.422 37.4046C106.065 37.4046 104.914 36.5044 104.844 34.8092H106.474C106.541 35.2831 106.76 35.7746 107.404 35.7746C107.529 35.779 107.654 35.7581 107.771 35.7132C107.889 35.6684 107.995 35.6004 108.086 35.5133C108.176 35.4263 108.248 35.322 108.297 35.2066C108.346 35.0913 108.372 34.9672 108.372 34.8418C108.372 34.3678 108.169 34.0443 107.507 33.7911L106.684 33.4851C105.599 33.0789 104.929 32.2639 104.929 31.1103C104.927 30.7772 104.991 30.4469 105.119 30.1391C105.246 29.8313 105.434 29.5522 105.671 29.3183C105.909 29.0845 106.191 28.9007 106.5 28.7777C106.81 28.6548 107.141 28.5953 107.474 28.6027C108.881 28.6027 109.899 29.6885 109.917 31.1103H108.287Z" fill="white"/>
<path d="M69.2296 41.4946H69.6634L70.4734 45.1182H69.9543L69.8013 44.3408H69.0942L68.9412 45.1182H68.4221L69.2296 41.4946ZM69.4503 42.5378L69.1995 43.8519H69.7186L69.4503 42.5378Z" fill="white"/>
<path d="M71.0577 41.4946H71.8101C71.9334 41.4827 72.058 41.4981 72.1747 41.5398C72.2914 41.5815 72.3976 41.6485 72.4855 41.7359C72.5734 41.8233 72.6409 41.929 72.6832 42.0456C72.7255 42.1621 72.7417 42.2865 72.7304 42.41V42.5429C72.7477 42.6779 72.7227 42.8151 72.659 42.9354C72.5952 43.0557 72.4958 43.1534 72.3743 43.2149C72.625 43.3328 72.7304 43.5509 72.7304 43.9271V44.1302C72.7304 44.7622 72.432 45.1182 71.7599 45.1182H71.0527L71.0577 41.4946ZM71.5768 42.9817H71.8101C72.1561 42.9817 72.2489 42.8037 72.2489 42.4802C72.2489 42.1567 72.131 41.9786 71.79 41.9786H71.5768V42.9817ZM71.5768 44.5992H71.8C72.2188 44.5992 72.2489 44.3484 72.2489 43.9898C72.2489 43.6312 72.1812 43.4381 71.805 43.4381H71.5768V44.5992Z" fill="white"/>
<path d="M73.5254 42.3497C73.5254 42.1189 73.6171 41.8975 73.7803 41.7344C73.9434 41.5712 74.1648 41.4795 74.3956 41.4795C74.6263 41.4795 74.8477 41.5712 75.0109 41.7344C75.174 41.8975 75.2657 42.1189 75.2657 42.3497V44.263C75.2657 44.4938 75.174 44.7151 75.0109 44.8783C74.8477 45.0415 74.6263 45.1332 74.3956 45.1332C74.1648 45.1332 73.9434 45.0415 73.7803 44.8783C73.6171 44.7151 73.5254 44.4938 73.5254 44.263V42.3497ZM74.0445 44.263C74.0445 44.3561 74.0815 44.4454 74.1473 44.5113C74.2132 44.5771 74.3024 44.6141 74.3956 44.6141C74.4887 44.6141 74.578 44.5771 74.6438 44.5113C74.7096 44.4454 74.7466 44.3561 74.7466 44.263V42.3497C74.7466 42.2565 74.7096 42.1672 74.6438 42.1014C74.578 42.0356 74.4887 41.9986 74.3956 41.9986C74.3024 41.9986 74.2132 42.0356 74.1473 42.1014C74.0815 42.1672 74.0445 42.2565 74.0445 42.3497V44.263Z" fill="white"/>
<path d="M76.0229 42.3497C76.0229 42.1189 76.1146 41.8975 76.2778 41.7344C76.441 41.5712 76.6623 41.4795 76.8931 41.4795C77.1239 41.4795 77.3452 41.5712 77.5084 41.7344C77.6716 41.8975 77.7633 42.1189 77.7633 42.3497V42.5327H77.2442V42.3497C77.2442 42.2565 77.2072 42.1672 77.1414 42.1014C77.0755 42.0356 76.9862 41.9986 76.8931 41.9986C76.8 41.9986 76.7107 42.0356 76.6449 42.1014C76.579 42.1672 76.542 42.2565 76.542 42.3497V44.263C76.542 44.3561 76.579 44.4454 76.6449 44.5113C76.7107 44.5771 76.8 44.6141 76.8931 44.6141C76.9862 44.6141 77.0755 44.5771 77.1414 44.5113C77.2072 44.4454 77.2442 44.3561 77.2442 44.263V43.5809H76.843V43.1245H77.7733V44.263C77.7733 44.4938 77.6816 44.7151 77.5184 44.8783C77.3553 45.0415 77.1339 45.1332 76.9031 45.1332C76.6724 45.1332 76.451 45.0415 76.2878 44.8783C76.1247 44.7151 76.033 44.4938 76.033 44.263L76.0229 42.3497Z" fill="white"/>
<path d="M79.1275 41.4946H79.5614L80.3688 45.1182H79.8523L79.6993 44.3408H78.9921L78.8392 45.1182H78.3201L79.1275 41.4946ZM79.3457 42.5378L79.0949 43.8519H79.6015L79.3457 42.5378Z" fill="white"/>
<path d="M80.9556 41.4946H81.7229C82.3072 41.4946 82.6332 41.8457 82.6332 42.4325V44.1252C82.6332 44.7972 82.2871 45.1283 81.6778 45.1283H80.9556V41.4946ZM81.4721 44.6292H81.7229C82.0113 44.6292 82.1241 44.4888 82.1241 44.1778V42.4225C82.1241 42.1366 82.0289 41.9736 81.7229 41.9736H81.4721V44.6292Z" fill="white"/>
<path d="M83.4231 42.3497C83.4231 42.1189 83.5148 41.8975 83.678 41.7344C83.8412 41.5712 84.0625 41.4795 84.2933 41.4795C84.524 41.4795 84.7454 41.5712 84.9086 41.7344C85.0718 41.8975 85.1634 42.1189 85.1634 42.3497V44.263C85.1634 44.4938 85.0718 44.7151 84.9086 44.8783C84.7454 45.0415 84.524 45.1332 84.2933 45.1332C84.0625 45.1332 83.8412 45.0415 83.678 44.8783C83.5148 44.7151 83.4231 44.4938 83.4231 44.263V42.3497ZM83.9422 44.263C83.9422 44.3561 83.9792 44.4454 84.045 44.5113C84.1109 44.5771 84.2002 44.6141 84.2933 44.6141C84.3864 44.6141 84.4757 44.5771 84.5415 44.5113C84.6074 44.4454 84.6443 44.3561 84.6443 44.263V42.3497C84.6443 42.2565 84.6074 42.1672 84.5415 42.1014C84.4757 42.0356 84.3864 41.9986 84.2933 41.9986C84.2002 41.9986 84.1109 42.0356 84.045 42.1014C83.9792 42.1672 83.9422 42.2565 83.9422 42.3497V44.263Z" fill="white"/>
<path d="M87.626 42.5378H87.1245V42.4225C87.1245 42.1717 87.0217 41.9836 86.7584 41.9836C86.495 41.9836 86.4073 42.2118 86.4073 42.4526C86.4073 42.7309 86.4324 42.8287 86.7007 42.9366L87.0994 43.092C87.5558 43.2651 87.6436 43.556 87.6436 44.0951C87.6436 44.707 87.4179 45.1584 86.7483 45.1584C86.633 45.1624 86.518 45.1431 86.4103 45.1017C86.3026 45.0603 86.2043 44.9975 86.1214 44.9172C86.0385 44.8369 85.9727 44.7407 85.9279 44.6343C85.8831 44.528 85.8602 44.4136 85.8606 44.2982V44.1051H86.3722V44.2681C86.3676 44.3176 86.374 44.3674 86.3907 44.4142C86.4074 44.4609 86.4341 44.5034 86.469 44.5388C86.5039 44.5741 86.546 44.6014 86.5925 44.6188C86.6391 44.6361 86.6888 44.6431 86.7383 44.6393C87.0894 44.6393 87.1144 44.4311 87.1144 44.1001C87.1144 43.7139 87.0693 43.6537 86.8135 43.5509L86.4424 43.398C85.9935 43.2149 85.8782 42.919 85.8782 42.4676C85.8782 41.9184 86.1716 41.4645 86.7684 41.4645C86.9915 41.4598 87.2075 41.5433 87.3695 41.6968C87.5314 41.8503 87.6263 42.0615 87.6335 42.2846L87.626 42.5378Z" fill="white"/>
<path d="M90.1989 41.4946H90.6352L91.4452 45.1182H90.9261L90.7731 44.3408H90.0659L89.913 45.1182H89.3813L90.1989 41.4946ZM90.4195 42.5378L90.1688 43.8519H90.6878L90.4195 42.5378Z" fill="white"/>
<path d="M93.7045 42.5378H93.188V42.4224C93.188 42.1717 93.0851 41.9836 92.8193 41.9836C92.5535 41.9836 92.4683 42.2118 92.4683 42.4525C92.4683 42.7309 92.4933 42.8287 92.7642 42.9365L93.1604 43.092C93.6193 43.265 93.7045 43.5559 93.7045 44.0951C93.7045 44.7069 93.4814 45.1583 92.8093 45.1583C92.6941 45.1624 92.5792 45.1431 92.4716 45.1016C92.3641 45.0602 92.266 44.9974 92.1833 44.917C92.1006 44.8367 92.035 44.7404 91.9905 44.6341C91.9459 44.5277 91.9233 44.4135 91.9241 44.2982V44.1051H92.4432V44.2681C92.4391 44.3174 92.4457 44.3671 92.4626 44.4136C92.4795 44.4602 92.5062 44.5025 92.541 44.5378C92.5758 44.573 92.6177 44.6003 92.664 44.6178C92.7104 44.6353 92.7599 44.6426 92.8093 44.6392C93.1604 44.6392 93.188 44.4311 93.188 44.1001C93.188 43.7139 93.1403 43.6537 92.887 43.5509L92.5159 43.3979C92.067 43.2149 91.9492 42.919 91.9492 42.4676C91.9492 41.9184 92.2451 41.4645 92.8419 41.4645C93.0646 41.4604 93.2799 41.5442 93.4414 41.6976C93.6028 41.8511 93.6973 42.0619 93.7045 42.2845V42.5378Z" fill="white"/>
<path d="M94.3967 42.3497C94.3967 42.1189 94.4884 41.8975 94.6516 41.7344C94.8148 41.5712 95.0361 41.4795 95.2669 41.4795C95.4977 41.4795 95.719 41.5712 95.8822 41.7344C96.0454 41.8975 96.1371 42.1189 96.1371 42.3497V44.263C96.1371 44.4938 96.0454 44.7151 95.8822 44.8783C95.719 45.0415 95.4977 45.1332 95.2669 45.1332C95.0361 45.1332 94.8148 45.0415 94.6516 44.8783C94.4884 44.7151 94.3967 44.4938 94.3967 44.263V42.3497ZM94.9158 44.263C94.9158 44.3561 94.9528 44.4454 95.0186 44.5113C95.0845 44.5771 95.1738 44.6141 95.2669 44.6141C95.36 44.6141 95.4493 44.5771 95.5151 44.5113C95.581 44.4454 95.618 44.3561 95.618 44.263V42.3497C95.618 42.2565 95.581 42.1672 95.5151 42.1014C95.4493 42.0356 95.36 41.9986 95.2669 41.9986C95.1738 41.9986 95.0845 42.0356 95.0186 42.1014C94.9528 42.1672 94.9158 42.2565 94.9158 42.3497V44.263Z" fill="white"/>
<path d="M98.5695 44.3132C98.5702 44.5329 98.4842 44.7441 98.3303 44.9009C98.1763 45.0577 97.9667 45.1474 97.747 45.1507C97.632 45.1616 97.516 45.1469 97.4074 45.1078C97.2987 45.0686 97.2 45.006 97.1183 44.9243C97.0366 44.8426 96.974 44.7439 96.9349 44.6353C96.8957 44.5266 96.8811 44.4106 96.8919 44.2956V42.307C96.8883 42.1955 96.9078 42.0845 96.9492 41.9809C96.9905 41.8773 97.0528 41.7834 97.1321 41.705C97.2115 41.6266 97.3062 41.5655 97.4102 41.5254C97.5143 41.4853 97.6256 41.4671 97.737 41.472C97.8495 41.4704 97.9612 41.492 98.065 41.5354C98.1689 41.5788 98.2628 41.643 98.3408 41.7241C98.4188 41.8052 98.4794 41.9014 98.5187 42.0069C98.5581 42.1123 98.5754 42.2247 98.5695 42.3371V42.5402H98.0504V42.3672C98.0556 42.3211 98.0513 42.2745 98.0378 42.2302C98.0242 42.1858 98.0017 42.1448 97.9716 42.1095C97.9415 42.0742 97.9044 42.0455 97.8628 42.0251C97.8212 42.0048 97.7758 41.9932 97.7295 41.9911C97.4787 41.9911 97.411 42.1691 97.411 42.4149V44.2655C97.411 44.4737 97.4912 44.6367 97.7244 44.6367C97.7711 44.6379 97.8174 44.6289 97.8603 44.6103C97.9031 44.5918 97.9413 44.5641 97.9724 44.5292C98.0034 44.4944 98.0265 44.4532 98.04 44.4085C98.0534 44.3638 98.057 44.3167 98.0504 44.2705V44.0925H98.5695V44.3132Z" fill="white"/>
<path d="M99.856 41.4946H99.3369V45.1182H99.856V41.4946Z" fill="white"/>
<path d="M101.268 41.4946H101.699L102.509 45.1182H101.99L101.837 44.3408H101.13L100.977 45.1182H100.458L101.268 41.4946ZM101.486 42.5378L101.235 43.8519H101.754L101.486 42.5378Z" fill="white"/>
<path d="M103.094 41.4946H103.861C104.448 41.4946 104.774 41.8457 104.774 42.4325V44.1252C104.774 44.7972 104.428 45.1283 103.816 45.1283H103.094V41.4946ZM103.613 44.6292H103.851C104.142 44.6292 104.255 44.4888 104.255 44.1778V42.4225C104.255 42.1366 104.157 41.9736 103.851 41.9736H103.613V44.6292Z" fill="white"/>
<path d="M105.561 42.3497C105.561 42.1189 105.653 41.8975 105.816 41.7344C105.979 41.5712 106.2 41.4795 106.431 41.4795C106.662 41.4795 106.883 41.5712 107.047 41.7344C107.21 41.8975 107.301 42.1189 107.301 42.3497V44.263C107.301 44.4938 107.21 44.7151 107.047 44.8783C106.883 45.0415 106.662 45.1332 106.431 45.1332C106.2 45.1332 105.979 45.0415 105.816 44.8783C105.653 44.7151 105.561 44.4938 105.561 44.263V42.3497ZM106.08 44.263C106.08 44.3561 106.117 44.4454 106.183 44.5113C106.249 44.5771 106.338 44.6141 106.431 44.6141C106.524 44.6141 106.614 44.5771 106.679 44.5113C106.745 44.4454 106.782 44.3561 106.782 44.263V42.3497C106.782 42.2565 106.745 42.1672 106.679 42.1014C106.614 42.0356 106.524 41.9986 106.431 41.9986C106.338 41.9986 106.249 42.0356 106.183 42.1014C106.117 42.1672 106.08 42.2565 106.08 42.3497V44.263Z" fill="white"/>
<path d="M109.769 42.5378H109.25V42.4225C109.25 42.1717 109.149 41.9836 108.884 41.9836C108.618 41.9836 108.532 42.2118 108.532 42.4526C108.532 42.7309 108.558 42.8287 108.828 42.9366L109.225 43.092C109.683 43.2651 109.769 43.556 109.769 44.0951C109.769 44.707 109.546 45.1584 108.874 45.1584C108.758 45.1624 108.643 45.1431 108.536 45.1017C108.428 45.0602 108.33 44.9974 108.247 44.9171C108.165 44.8367 108.099 44.7405 108.055 44.6341C108.01 44.5278 107.988 44.4135 107.988 44.2982V44.1051H108.507V44.2681C108.503 44.3175 108.51 44.3671 108.527 44.4137C108.544 44.4602 108.57 44.5026 108.605 44.5378C108.64 44.5731 108.682 44.6004 108.728 44.6179C108.775 44.6354 108.824 44.6427 108.874 44.6393C109.225 44.6393 109.25 44.4311 109.25 44.1001C109.25 43.7139 109.205 43.6537 108.951 43.5509L108.58 43.398C108.131 43.2149 108.013 42.919 108.013 42.4676C108.013 41.9184 108.309 41.4645 108.904 41.4645C109.127 41.4598 109.343 41.5433 109.505 41.6968C109.667 41.8503 109.762 42.0615 109.769 42.2846V42.5378Z" fill="white"/>
<path d="M42.9014 23.3615H18.1631V14.2937H42.9139L42.9014 23.3615ZM39.6264 17.5211H21.4231V20.1341H39.6238L39.6264 17.5211Z" fill="white"/>
<path d="M37.6202 24.1641H33.2092C33.2544 30.9632 33.2987 37.7599 33.3421 44.554C34.2626 44.4318 35.174 44.2492 36.0705 44.0074C36.0237 39.7543 35.9752 35.5021 35.9251 31.2508C37.4297 31.1053 38.9343 30.8947 40.3887 30.6264C40.4289 34.5032 40.4706 38.3793 40.5141 42.2545C41.3603 41.8037 42.1754 41.2968 42.9541 40.7373V24.1641H37.6202ZM40.3787 28.6929C38.9025 28.8819 37.4129 29.0281 35.91 29.1318C35.91 28.5283 35.9033 27.9248 35.8899 27.3212C37.3946 27.256 38.885 27.1633 40.3611 27.0429C40.3611 27.5912 40.367 28.1412 40.3787 28.6929Z" fill="white"/>
<path d="M24.9339 26.4109C24.0086 25.6862 23.0857 24.984 22.1604 24.322L18.1055 24.3044V40.8827C18.9804 41.5173 19.9026 42.084 20.8639 42.5779L21.037 27.4014C21.8244 28.0208 22.6093 28.6678 23.4017 29.3273C23.3398 34.0903 23.278 38.8549 23.2161 43.6211C24.1963 43.9845 25.2022 44.2745 26.2253 44.4888L26.3683 29.5656C27.1808 29.0038 27.9908 28.412 28.7982 27.8102C28.7732 33.4943 28.7489 39.1784 28.7255 44.8624C29.7613 44.9527 30.8024 44.9653 31.8401 44.9001C31.82 38.0457 31.7983 31.1972 31.7749 24.3546H27.7074C26.7821 25.0693 25.8517 25.7664 24.9214 26.431" fill="white"/>
<path d="M51.1968 8.95483H9.95547C7.41518 8.95483 5.07802 11.0187 4.88744 13.5514C4.8403 14.2172 4.92748 14.8857 5.1438 15.5172C5.36013 16.1487 5.70118 16.7302 6.1467 17.2272C6.59221 17.7243 7.1331 18.1267 7.73721 18.4106C8.34132 18.6944 8.99633 18.854 9.66332 18.8797C10.3303 18.9054 10.9957 18.7968 11.6199 18.5603C12.244 18.3238 12.8143 17.9643 13.2968 17.503C13.7793 17.0417 14.1641 16.4882 14.4284 15.8753C14.6927 15.2624 14.8311 14.6026 14.8354 13.9351C14.8338 13.5281 14.7816 13.123 14.6799 12.7289H46.3695C46.1156 13.7349 46.1823 14.7951 46.5602 15.7614C46.938 16.7277 47.6083 17.5519 48.4773 18.1188C49.3462 18.6857 50.3706 18.967 51.4072 18.9235C52.4439 18.88 53.4411 18.5138 54.2595 17.8761C55.0779 17.2383 55.6767 16.3609 55.9723 15.3663C56.2679 14.3718 56.2454 13.3097 55.9081 12.3285C55.5708 11.3473 54.9354 10.496 54.0908 9.89338C53.2462 9.29079 52.2344 8.96705 51.1968 8.96737M12.3453 13.9401C12.3539 14.5553 12.1376 15.1524 11.7371 15.6194C11.3366 16.0864 10.7794 16.3911 10.1701 16.4763C9.56082 16.5615 8.94138 16.4214 8.42811 16.0822C7.91484 15.743 7.54304 15.2281 7.38253 14.6342C7.22201 14.0403 7.28382 13.4083 7.55636 12.8567C7.82889 12.3052 8.2934 11.8721 8.86266 11.6388C9.43192 11.4055 10.0668 11.388 10.648 11.5896C11.2292 11.7913 11.7168 12.1982 12.0193 12.7339C12.2297 13.1013 12.342 13.5167 12.3453 13.9401ZM50.9636 16.4202C50.4194 16.3669 49.9075 16.1371 49.5059 15.7659C49.1043 15.3946 48.8351 14.9023 48.7393 14.3639C48.6413 13.8036 48.7433 13.2266 49.0277 12.7339C49.246 12.3432 49.5659 12.0186 49.9534 11.7946C50.3409 11.5706 50.7818 11.4554 51.2294 11.4612C51.677 11.467 52.1147 11.5936 52.4963 11.8276C52.8778 12.0616 53.1892 12.3943 53.3973 12.7906C53.6054 13.1869 53.7026 13.6321 53.6787 14.0791C53.6547 14.5261 53.5105 14.9583 53.2612 15.3301C53.0119 15.7019 52.6668 15.9994 52.2624 16.1913C51.858 16.3832 51.4093 16.4623 50.9636 16.4202Z" fill="white"/>
<path d="M29.6759 53.8726C18.607 53.6594 8.07976 49.0202 0.250768 41.1912L0 40.9404V0H61.0445V40.948L60.543 41.4495C56.509 45.5059 51.6922 48.6994 46.3854 50.8359C41.0786 52.9724 35.3927 54.0073 29.6734 53.8776M3.40042 39.5487C10.6824 46.5753 20.4068 50.502 30.526 50.502C40.6453 50.502 50.3697 46.5753 57.6517 39.5487V3.3929H3.40042V39.5487Z" fill="white"/>
</svg>
